<svg width="62" height="60" viewBox="0 0 62 60" fill="none" xmlns="http://www.w3.org/2000/svg">
<g filter="url(#filter0_dddddd_211_383)">
<path d="M33.5586 35.3094C33.3265 35.3094 33.104 35.4016 32.9399 35.5657C32.7758 35.7298 32.6836 35.9524 32.6836 36.1844C32.6836 36.4165 32.7758 36.6391 32.9399 36.8032C33.104 36.9673 33.3265 37.0594 33.5586 37.0594C33.7907 37.0594 34.0132 36.9673 34.1773 36.8032C34.3414 36.6391 34.4336 36.4165 34.4336 36.1844C34.4336 35.9524 34.3414 35.7298 34.1773 35.5657C34.0132 35.4016 33.7907 35.3094 33.5586 35.3094ZM33.5586 32.6844C33.3265 32.6844 33.104 32.7766 32.9399 32.9407C32.7758 33.1048 32.6836 33.3274 32.6836 33.5594C32.6836 33.7915 32.7758 34.0141 32.9399 34.1782C33.104 34.3423 33.3265 34.4344 33.5586 34.4344C33.7907 34.4344 34.0132 34.3423 34.1773 34.1782C34.3414 34.0141 34.4336 33.7915 34.4336 33.5594C34.4336 33.3274 34.3414 33.1048 34.1773 32.9407C34.0132 32.7766 33.7907 32.6844 33.5586 32.6844ZM36.1836 30.0594C35.9515 30.0594 35.729 30.1516 35.5649 30.3157C35.4008 30.4798 35.3086 30.7024 35.3086 30.9344C35.3086 31.1665 35.4008 31.3891 35.5649 31.5532C35.729 31.7173 35.9515 31.8094 36.1836 31.8094C36.4157 31.8094 36.6382 31.7173 36.8023 31.5532C36.9664 31.3891 37.0586 31.1665 37.0586 30.9344C37.0586 30.7024 36.9664 30.4798 36.8023 30.3157C36.6382 30.1516 36.4157 30.0594 36.1836 30.0594ZM38.8086 27.4344C38.5765 27.4344 38.354 27.5266 38.1899 27.6907C38.0258 27.8548 37.9336 28.0774 37.9336 28.3094C37.9336 28.5415 38.0258 28.7641 38.1899 28.9282C38.354 29.0923 38.5765 29.1844 38.8086 29.1844C39.0407 29.1844 39.2632 29.0923 39.4273 28.9282C39.5914 28.7641 39.6836 28.5415 39.6836 28.3094C39.6836 28.0774 39.5914 27.8548 39.4273 27.6907C39.2632 27.5266 39.0407 27.4344 38.8086 27.4344ZM38.8086 24.8094C38.5765 24.8094 38.354 24.9016 38.1899 25.0657C38.0258 25.2298 37.9336 25.4524 37.9336 25.6844C37.9336 25.9165 38.0258 26.1391 38.1899 26.3032C38.354 26.4673 38.5765 26.5594 38.8086 26.5594C39.0407 26.5594 39.2632 26.4673 39.4273 26.3032C39.5914 26.1391 39.6836 25.9165 39.6836 25.6844C39.6836 25.4524 39.5914 25.2298 39.4273 25.0657C39.2632 24.9016 39.0407 24.8094 38.8086 24.8094ZM44.0586 24.8094C43.8265 24.8094 43.604 24.9016 43.4399 25.0657C43.2758 25.2298 43.1836 25.4524 43.1836 25.6844C43.1836 25.9165 43.2758 26.1391 43.4399 26.3032C43.604 26.4673 43.8265 26.5594 44.0586 26.5594C44.2907 26.5594 44.5132 26.4673 44.6773 26.3032C44.8414 26.1391 44.9336 25.9165 44.9336 25.6844C44.9336 25.4524 44.8414 25.2298 44.6773 25.0657C44.5132 24.9016 44.2907 24.8094 44.0586 24.8094ZM41.4336 19.5594C41.2015 19.5594 40.979 19.6516 40.8149 19.8157C40.6508 19.9798 40.5586 20.2024 40.5586 20.4344C40.5586 20.6665 40.6508 20.8891 40.8149 21.0532C40.979 21.2173 41.2015 21.3094 41.4336 21.3094C41.6657 21.3094 41.8882 21.2173 42.0523 21.0532C42.2164 20.8891 42.3086 20.6665 42.3086 20.4344C42.3086 20.2024 42.2164 19.9798 42.0523 19.8157C41.8882 19.6516 41.6657 19.5594 41.4336 19.5594ZM41.4336 30.0594C41.2015 30.0594 40.979 30.1516 40.8149 30.3157C40.6508 30.4798 40.5586 30.7024 40.5586 30.9344C40.5586 31.1665 40.6508 31.3891 40.8149 31.5532C40.979 31.7173 41.2015 31.8094 41.4336 31.8094C41.6657 31.8094 41.8882 31.7173 42.0523 31.5532C42.2164 31.3891 42.3086 31.1665 42.3086 30.9344C42.3086 30.7024 42.2164 30.4798 42.0523 30.3157C41.8882 30.1516 41.6657 30.0594 41.4336 30.0594ZM20.4336 19.5594C20.2015 19.5594 19.979 19.6516 19.8149 19.8157C19.6508 19.9798 19.5586 20.2024 19.5586 20.4344C19.5586 20.6665 19.6508 20.8891 19.8149 21.0532C19.979 21.2173 20.2015 21.3094 20.4336 21.3094C20.6657 21.3094 20.8882 21.2173 21.0523 21.0532C21.2164 20.8891 21.3086 20.6665 21.3086 20.4344C21.3086 20.2024 21.2164 19.9798 21.0523 19.8157C20.8882 19.6516 20.6657 19.5594 20.4336 19.5594ZM20.4336 30.0594C20.2015 30.0594 19.979 30.1516 19.8149 30.3157C19.6508 30.4798 19.5586 30.7024 19.5586 30.9344C19.5586 31.1665 19.6508 31.3891 19.8149 31.5532C19.979 31.7173 20.2015 31.8094 20.4336 31.8094C20.6657 31.8094 20.8882 31.7173 21.0523 31.5532C21.2164 31.3891 21.3086 31.1665 21.3086 30.9344C21.3086 30.7024 21.2164 30.4798 21.0523 30.3157C20.8882 30.1516 20.6657 30.0594 20.4336 30.0594ZM17.8086 24.8094C17.5765 24.8094 17.354 24.9016 17.1899 25.0657C17.0258 25.2298 16.9336 25.4524 16.9336 25.6844C16.9336 25.9165 17.0258 26.1391 17.1899 26.3032C17.354 26.4673 17.5765 26.5594 17.8086 26.5594C18.0407 26.5594 18.2632 26.4673 18.4273 26.3032C18.5914 26.1391 18.6836 25.9165 18.6836 25.6844C18.6836 25.4524 18.5914 25.2298 18.4273 25.0657C18.2632 24.9016 18.0407 24.8094 17.8086 24.8094ZM38.8086 22.1844C38.5765 22.1844 38.354 22.2766 38.1899 22.4407C38.0258 22.6048 37.9336 22.8274 37.9336 23.0594C37.9336 23.2915 38.0258 23.5141 38.1899 23.6782C38.354 23.8423 38.5765 23.9344 38.8086 23.9344C39.0407 23.9344 39.2632 23.8423 39.4273 23.6782C39.5914 23.5141 39.6836 23.2915 39.6836 23.0594C39.6836 22.8274 39.5914 22.6048 39.4273 22.4407C39.2632 22.2766 39.0407 22.1844 38.8086 22.1844ZM36.1836 19.5594C35.9515 19.5594 35.729 19.6516 35.5649 19.8157C35.4008 19.9798 35.3086 20.2024 35.3086 20.4344C35.3086 20.6665 35.4008 20.8891 35.5649 21.0532C35.729 21.2173 35.9515 21.3094 36.1836 21.3094C36.4157 21.3094 36.6382 21.2173 36.8023 21.0532C36.9664 20.8891 37.0586 20.6665 37.0586 20.4344C37.0586 20.2024 36.9664 19.9798 36.8023 19.8157C36.6382 19.6516 36.4157 19.5594 36.1836 19.5594ZM33.5586 16.9344C33.3265 16.9344 33.104 17.0266 32.9399 17.1907C32.7758 17.3548 32.6836 17.5774 32.6836 17.8094C32.6836 18.0415 32.7758 18.2641 32.9399 18.4282C33.104 18.5923 33.3265 18.6844 33.5586 18.6844C33.7907 18.6844 34.0132 18.5923 34.1773 18.4282C34.3414 18.2641 34.4336 18.0415 34.4336 17.8094C34.4336 17.5774 34.3414 17.3548 34.1773 17.1907C34.0132 17.0266 33.7907 16.9344 33.5586 16.9344ZM28.3086 32.6844C28.0765 32.6844 27.854 32.7766 27.6899 32.9407C27.5258 33.1048 27.4336 33.3274 27.4336 33.5594C27.4336 33.7915 27.5258 34.0141 27.6899 34.1782C27.854 34.3423 28.0765 34.4344 28.3086 34.4344C28.5407 34.4344 28.7632 34.3423 28.9273 34.1782C29.0914 34.0141 29.1836 33.7915 29.1836 33.5594C29.1836 33.3274 29.0914 33.1048 28.9273 32.9407C28.7632 32.7766 28.5407 32.6844 28.3086 32.6844ZM25.6836 30.0594C25.4515 30.0594 25.229 30.1516 25.0649 30.3157C24.9008 30.4798 24.8086 30.7024 24.8086 30.9344C24.8086 31.1665 24.9008 31.3891 25.0649 31.5532C25.229 31.7173 25.4515 31.8094 25.6836 31.8094C25.9157 31.8094 26.1382 31.7173 26.3023 31.5532C26.4664 31.3891 26.5586 31.1665 26.5586 30.9344C26.5586 30.7024 26.4664 30.4798 26.3023 30.3157C26.1382 30.1516 25.9157 30.0594 25.6836 30.0594ZM23.0586 27.4344C22.8265 27.4344 22.604 27.5266 22.4399 27.6907C22.2758 27.8548 22.1836 28.0774 22.1836 28.3094C22.1836 28.5415 22.2758 28.7641 22.4399 28.9282C22.604 29.0923 22.8265 29.1844 23.0586 29.1844C23.2907 29.1844 23.5132 29.0923 23.6773 28.9282C23.8414 28.7641 23.9336 28.5415 23.9336 28.3094C23.9336 28.0774 23.8414 27.8548 23.6773 27.6907C23.5132 27.5266 23.2907 27.4344 23.0586 27.4344ZM23.0586 24.8094C22.8265 24.8094 22.604 24.9016 22.4399 25.0657C22.2758 25.2298 22.1836 25.4524 22.1836 25.6844C22.1836 25.9165 22.2758 26.1391 22.4399 26.3032C22.604 26.4673 22.8265 26.5594 23.0586 26.5594C23.2907 26.5594 23.5132 26.4673 23.6773 26.3032C23.8414 26.1391 23.9336 25.9165 23.9336 25.6844C23.9336 25.4524 23.8414 25.2298 23.6773 25.0657C23.5132 24.9016 23.2907 24.8094 23.0586 24.8094ZM23.0586 22.1844C22.8265 22.1844 22.604 22.2766 22.4399 22.4407C22.2758 22.6048 22.1836 22.8274 22.1836 23.0594C22.1836 23.2915 22.2758 23.5141 22.4399 23.6782C22.604 23.8423 22.8265 23.9344 23.0586 23.9344C23.2907 23.9344 23.5132 23.8423 23.6773 23.6782C23.8414 23.5141 23.9336 23.2915 23.9336 23.0594C23.9336 22.8274 23.8414 22.6048 23.6773 22.4407C23.5132 22.2766 23.2907 22.1844 23.0586 22.1844ZM25.6836 19.5594C25.4515 19.5594 25.229 19.6516 25.0649 19.8157C24.9008 19.9798 24.8086 20.2024 24.8086 20.4344C24.8086 20.6665 24.9008 20.8891 25.0649 21.0532C25.229 21.2173 25.4515 21.3094 25.6836 21.3094C25.9157 21.3094 26.1382 21.2173 26.3023 21.0532C26.4664 20.8891 26.5586 20.6665 26.5586 20.4344C26.5586 20.2024 26.4664 19.9798 26.3023 19.8157C26.1382 19.6516 25.9157 19.5594 25.6836 19.5594ZM28.3086 16.9344C28.0765 16.9344 27.854 17.0266 27.6899 17.1907C27.5258 17.3548 27.4336 17.5774 27.4336 17.8094C27.4336 18.0415 27.5258 18.2641 27.6899 18.4282C27.854 18.5923 28.0765 18.6844 28.3086 18.6844C28.5407 18.6844 28.7632 18.5923 28.9273 18.4282C29.0914 18.2641 29.1836 18.0415 29.1836 17.8094C29.1836 17.5774 29.0914 17.3548 28.9273 17.1907C28.7632 17.0266 28.5407 16.9344 28.3086 16.9344ZM30.9336 16.9344C30.7015 16.9344 30.479 17.0266 30.3149 17.1907C30.1508 17.3548 30.0586 17.5774 30.0586 17.8094C30.0586 18.0415 30.1508 18.2641 30.3149 18.4282C30.479 18.5923 30.7015 18.6844 30.9336 18.6844C31.1657 18.6844 31.3882 18.5923 31.5523 18.4282C31.7164 18.2641 31.8086 18.0415 31.8086 17.8094C31.8086 17.5774 31.7164 17.3548 31.5523 17.1907C31.3882 17.0266 31.1657 16.9344 30.9336 16.9344ZM30.9336 35.3094C30.7015 35.3094 30.479 35.4016 30.3149 35.5657C30.1508 35.7298 30.0586 35.9524 30.0586 36.1844C30.0586 36.4165 30.1508 36.6391 30.3149 36.8032C30.479 36.9673 30.7015 37.0594 30.9336 37.0594C31.1657 37.0594 31.3882 36.9673 31.5523 36.8032C31.7164 36.6391 31.8086 36.4165 31.8086 36.1844C31.8086 35.9524 31.7164 35.7298 31.5523 35.5657C31.3882 35.4016 31.1657 35.3094 30.9336 35.3094ZM30.9336 32.6844C30.7015 32.6844 30.479 32.7766 30.3149 32.9407C30.1508 33.1048 30.0586 33.3274 30.0586 33.5594C30.0586 33.7915 30.1508 34.0141 30.3149 34.1782C30.479 34.3423 30.7015 34.4344 30.9336 34.4344C31.1657 34.4344 31.3882 34.3423 31.5523 34.1782C31.7164 34.0141 31.8086 33.7915 31.8086 33.5594C31.8086 33.3274 31.7164 33.1048 31.5523 32.9407C31.3882 32.7766 31.1657 32.6844 30.9336 32.6844ZM30.9336 30.0594C30.7015 30.0594 30.479 30.1516 30.3149 30.3157C30.1508 30.4798 30.0586 30.7024 30.0586 30.9344C30.0586 31.1665 30.1508 31.3891 30.3149 31.5532C30.479 31.7173 30.7015 31.8094 30.9336 31.8094C31.1657 31.8094 31.3882 31.7173 31.5523 31.5532C31.7164 31.3891 31.8086 31.1665 31.8086 30.9344C31.8086 30.7024 31.7164 30.4798 31.5523 30.3157C31.3882 30.1516 31.1657 30.0594 30.9336 30.0594ZM30.9336 27.4344C30.7015 27.4344 30.479 27.5266 30.3149 27.6907C30.1508 27.8548 30.0586 28.0774 30.0586 28.3094C30.0586 28.5415 30.1508 28.7641 30.3149 28.9282C30.479 29.0923 30.7015 29.1844 30.9336 29.1844C31.1657 29.1844 31.3882 29.0923 31.5523 28.9282C31.7164 28.7641 31.8086 28.5415 31.8086 28.3094C31.8086 28.0774 31.7164 27.8548 31.5523 27.6907C31.3882 27.5266 31.1657 27.4344 30.9336 27.4344ZM30.9336 24.8094C30.7015 24.8094 30.479 24.9016 30.3149 25.0657C30.1508 25.2298 30.0586 25.4524 30.0586 25.6844C30.0586 25.9165 30.1508 26.1391 30.3149 26.3032C30.479 26.4673 30.7015 26.5594 30.9336 26.5594C31.1657 26.5594 31.3882 26.4673 31.5523 26.3032C31.7164 26.1391 31.8086 25.9165 31.8086 25.6844C31.8086 25.4524 31.7164 25.2298 31.5523 25.0657C31.3882 24.9016 31.1657 24.8094 30.9336 24.8094ZM28.3086 35.3094C28.0765 35.3094 27.854 35.4016 27.6899 35.5657C27.5258 35.7298 27.4336 35.9524 27.4336 36.1844C27.4336 36.4165 27.5258 36.6391 27.6899 36.8032C27.854 36.9673 28.0765 37.0594 28.3086 37.0594C28.5407 37.0594 28.7632 36.9673 28.9273 36.8032C29.0914 36.6391 29.1836 36.4165 29.1836 36.1844C29.1836 35.9524 29.0914 35.7298 28.9273 35.5657C28.7632 35.4016 28.5407 35.3094 28.3086 35.3094ZM33.5586 37.9344C33.3265 37.9344 33.104 38.0266 32.9399 38.1907C32.7758 38.3548 32.6836 38.5774 32.6836 38.8094C32.6836 39.0415 32.7758 39.2641 32.9399 39.4282C33.104 39.5923 33.3265 39.6844 33.5586 39.6844C33.7907 39.6844 34.0132 39.5923 34.1773 39.4282C34.3414 39.2641 34.4336 39.0415 34.4336 38.8094C34.4336 38.5774 34.3414 38.3548 34.1773 38.1907C34.0132 38.0266 33.7907 37.9344 33.5586 37.9344ZM30.9336 37.9344C30.7015 37.9344 30.479 38.0266 30.3149 38.1907C30.1508 38.3548 30.0586 38.5774 30.0586 38.8094C30.0586 39.0415 30.1508 39.2641 30.3149 39.4282C30.479 39.5923 30.7015 39.6844 30.9336 39.6844C31.1657 39.6844 31.3882 39.5923 31.5523 39.4282C31.7164 39.2641 31.8086 39.0415 31.8086 38.8094C31.8086 38.5774 31.7164 38.3548 31.5523 38.1907C31.3882 38.0266 31.1657 37.9344 30.9336 37.9344ZM30.9336 40.5594C30.7015 40.5594 30.479 40.6516 30.3149 40.8157C30.1508 40.9798 30.0586 41.2024 30.0586 41.4344C30.0586 41.6665 30.1508 41.8891 30.3149 42.0532C30.479 42.2173 30.7015 42.3094 30.9336 42.3094C31.1657 42.3094 31.3882 42.2173 31.5523 42.0532C31.7164 41.8891 31.8086 41.6665 31.8086 41.4344C31.8086 41.2024 31.7164 40.9798 31.5523 40.8157C31.3882 40.6516 31.1657 40.5594 30.9336 40.5594ZM28.3086 37.9344C28.0765 37.9344 27.854 38.0266 27.6899 38.1907C27.5258 38.3548 27.4336 38.5774 27.4336 38.8094C27.4336 39.0415 27.5258 39.2641 27.6899 39.4282C27.854 39.5923 28.0765 39.6844 28.3086 39.6844C28.5407 39.6844 28.7632 39.5923 28.9273 39.4282C29.0914 39.2641 29.1836 39.0415 29.1836 38.8094C29.1836 38.5774 29.0914 38.3548 28.9273 38.1907C28.7632 38.0266 28.5407 37.9344 28.3086 37.9344Z" fill="white"/>
</g>
<defs>
<filter id="filter0_dddddd_211_383" x="-0.000806808" y="-2.62495" width="61.8688" height="61.8688" filterUnits="userSpaceOnUse" color-interpolation-filters="sRGB">
<feFlood flood-opacity="0" result="BackgroundImageFix"/>
<feColorMatrix in="SourceAlpha" type="matrix" values="0 0 0 0 0 0 0 0 0 0 0 0 0 0 0 0 0 0 127 0" result="hardAlpha"/>
<feOffset/>
<feGaussianBlur stdDeviation="0.2016"/>
<feColorMatrix type="matrix" values="0 0 0 0 1 0 0 0 0 1 0 0 0 0 1 0 0 0 1 0"/>
<feBlend mode="normal" in2="BackgroundImageFix" result="effect1_dropShadow_211_383"/>
<feColorMatrix in="SourceAlpha" type="matrix" values="0 0 0 0 0 0 0 0 0 0 0 0 0 0 0 0 0 0 127 0" result="hardAlpha"/>
<feOffset/>
<feGaussianBlur stdDeviation="0.4032"/>
<feColorMatrix type="matrix" values="0 0 0 0 1 0 0 0 0 1 0 0 0 0 1 0 0 0 1 0"/>
<feBlend mode="normal" in2="effect1_dropShadow_211_383" result="effect2_dropShadow_211_383"/>
<feColorMatrix in="SourceAlpha" type="matrix" values="0 0 0 0 0 0 0 0 0 0 0 0 0 0 0 0 0 0 127 0" result="hardAlpha"/>
<feOffset/>
<feGaussianBlur stdDeviation="1.4112"/>
<feColorMatrix type="matrix" values="0 0 0 0 1 0 0 0 0 1 0 0 0 0 1 0 0 0 1 0"/>
<feBlend mode="normal" in2="effect2_dropShadow_211_383" result="effect3_dropShadow_211_383"/>
<feColorMatrix in="SourceAlpha" type="matrix" values="0 0 0 0 0 0 0 0 0 0 0 0 0 0 0 0 0 0 127 0" result="hardAlpha"/>
<feOffset/>
<feGaussianBlur stdDeviation="2.8224"/>
<feColorMatrix type="matrix" values="0 0 0 0 1 0 0 0 0 1 0 0 0 0 1 0 0 0 1 0"/>
<feBlend mode="normal" in2="effect3_dropShadow_211_383" result="effect4_dropShadow_211_383"/>
<feColorMatrix in="SourceAlpha" type="matrix" values="0 0 0 0 0 0 0 0 0 0 0 0 0 0 0 0 0 0 127 0" result="hardAlpha"/>
<feOffset/>
<feGaussianBlur stdDeviation="4.8384"/>
<feColorMatrix type="matrix" values="0 0 0 0 1 0 0 0 0 1 0 0 0 0 1 0 0 0 1 0"/>
<feBlend mode="normal" in2="effect4_dropShadow_211_383" result="effect5_dropShadow_211_383"/>
<feColorMatrix in="SourceAlpha" type="matrix" values="0 0 0 0 0 0 0 0 0 0 0 0 0 0 0 0 0 0 127 0" result="hardAlpha"/>
<feOffset/>
<feGaussianBlur stdDeviation="8.4672"/>
<feColorMatrix type="matrix" values="0 0 0 0 1 0 0 0 0 1 0 0 0 0 1 0 0 0 1 0"/>
<feBlend mode="normal" in2="effect5_dropShadow_211_383" result="effect6_dropShadow_211_383"/>
<feBlend mode="normal" in="SourceGraphic" in2="effect6_dropShadow_211_383" result="shape"/>
</filter>
</defs>
</svg>
