<svg width="28" height="26" viewBox="0 0 28 26" fill="none" xmlns="http://www.w3.org/2000/svg">
<path d="M16.625 18.375C16.3929 18.375 16.1704 18.4672 16.0063 18.6313C15.8422 18.7954 15.75 19.0179 15.75 19.25C15.75 19.4821 15.8422 19.7046 16.0063 19.8687C16.1704 20.0328 16.3929 20.125 16.625 20.125C16.8571 20.125 17.0796 20.0328 17.2437 19.8687C17.4078 19.7046 17.5 19.4821 17.5 19.25C17.5 19.0179 17.4078 18.7954 17.2437 18.6313C17.0796 18.4672 16.8571 18.375 16.625 18.375ZM16.625 15.75C16.3929 15.75 16.1704 15.8422 16.0063 16.0063C15.8422 16.1704 15.75 16.3929 15.75 16.625C15.75 16.8571 15.8422 17.0796 16.0063 17.2437C16.1704 17.4078 16.3929 17.5 16.625 17.5C16.8571 17.5 17.0796 17.4078 17.2437 17.2437C17.4078 17.0796 17.5 16.8571 17.5 16.625C17.5 16.3929 17.4078 16.1704 17.2437 16.0063C17.0796 15.8422 16.8571 15.75 16.625 15.75ZM19.25 13.125C19.0179 13.125 18.7954 13.2172 18.6313 13.3813C18.4672 13.5454 18.375 13.7679 18.375 14C18.375 14.2321 18.4672 14.4546 18.6313 14.6187C18.7954 14.7828 19.0179 14.875 19.25 14.875C19.4821 14.875 19.7046 14.7828 19.8687 14.6187C20.0328 14.4546 20.125 14.2321 20.125 14C20.125 13.7679 20.0328 13.5454 19.8687 13.3813C19.7046 13.2172 19.4821 13.125 19.25 13.125ZM21.875 10.5C21.6429 10.5 21.4204 10.5922 21.2563 10.7563C21.0922 10.9204 21 11.1429 21 11.375C21 11.6071 21.0922 11.8296 21.2563 11.9937C21.4204 12.1578 21.6429 12.25 21.875 12.25C22.1071 12.25 22.3296 12.1578 22.4937 11.9937C22.6578 11.8296 22.75 11.6071 22.75 11.375C22.75 11.1429 22.6578 10.9204 22.4937 10.7563C22.3296 10.5922 22.1071 10.5 21.875 10.5ZM21.875 7.875C21.6429 7.875 21.4204 7.96719 21.2563 8.13128C21.0922 8.29538 21 8.51794 21 8.75C21 8.98206 21.0922 9.20462 21.2563 9.36872C21.4204 9.53281 21.6429 9.625 21.875 9.625C22.1071 9.625 22.3296 9.53281 22.4937 9.36872C22.6578 9.20462 22.75 8.98206 22.75 8.75C22.75 8.51794 22.6578 8.29538 22.4937 8.13128C22.3296 7.96719 22.1071 7.875 21.875 7.875ZM27.125 7.875C26.8929 7.875 26.6704 7.96719 26.5063 8.13128C26.3422 8.29538 26.25 8.51794 26.25 8.75C26.25 8.98206 26.3422 9.20462 26.5063 9.36872C26.6704 9.53281 26.8929 9.625 27.125 9.625C27.3571 9.625 27.5796 9.53281 27.7437 9.36872C27.9078 9.20462 28 8.98206 28 8.75C28 8.51794 27.9078 8.29538 27.7437 8.13128C27.5796 7.96719 27.3571 7.875 27.125 7.875ZM24.5 2.625C24.2679 2.625 24.0454 2.71719 23.8813 2.88128C23.7172 3.04538 23.625 3.26794 23.625 3.5C23.625 3.73206 23.7172 3.95462 23.8813 4.11872C24.0454 4.28281 24.2679 4.375 24.5 4.375C24.7321 4.375 24.9546 4.28281 25.1187 4.11872C25.2828 3.95462 25.375 3.73206 25.375 3.5C25.375 3.26794 25.2828 3.04538 25.1187 2.88128C24.9546 2.71719 24.7321 2.625 24.5 2.625ZM24.5 13.125C24.2679 13.125 24.0454 13.2172 23.8813 13.3813C23.7172 13.5454 23.625 13.7679 23.625 14C23.625 14.2321 23.7172 14.4546 23.8813 14.6187C24.0454 14.7828 24.2679 14.875 24.5 14.875C24.7321 14.875 24.9546 14.7828 25.1187 14.6187C25.2828 14.4546 25.375 14.2321 25.375 14C25.375 13.7679 25.2828 13.5454 25.1187 13.3813C24.9546 13.2172 24.7321 13.125 24.5 13.125ZM3.5 2.625C3.26794 2.625 3.04538 2.71719 2.88128 2.88128C2.71719 3.04538 2.625 3.26794 2.625 3.5C2.625 3.73206 2.71719 3.95462 2.88128 4.11872C3.04538 4.28281 3.26794 4.375 3.5 4.375C3.73206 4.375 3.95462 4.28281 4.11872 4.11872C4.28281 3.95462 4.375 3.73206 4.375 3.5C4.375 3.26794 4.28281 3.04538 4.11872 2.88128C3.95462 2.71719 3.73206 2.625 3.5 2.625ZM3.5 13.125C3.26794 13.125 3.04538 13.2172 2.88128 13.3813C2.71719 13.5454 2.625 13.7679 2.625 14C2.625 14.2321 2.71719 14.4546 2.88128 14.6187C3.04538 14.7828 3.26794 14.875 3.5 14.875C3.73206 14.875 3.95462 14.7828 4.11872 14.6187C4.28281 14.4546 4.375 14.2321 4.375 14C4.375 13.7679 4.28281 13.5454 4.11872 13.3813C3.95462 13.2172 3.73206 13.125 3.5 13.125ZM0.875 7.875C0.642936 7.875 0.420376 7.96719 0.256282 8.13128C0.0921872 8.29538 0 8.51794 0 8.75C0 8.98206 0.0921872 9.20462 0.256282 9.36872C0.420376 9.53281 0.642936 9.625 0.875 9.625C1.10706 9.625 1.32962 9.53281 1.49372 9.36872C1.65781 9.20462 1.75 8.98206 1.75 8.75C1.75 8.51794 1.65781 8.29538 1.49372 8.13128C1.32962 7.96719 1.10706 7.875 0.875 7.875ZM21.875 5.25C21.6429 5.25 21.4204 5.34219 21.2563 5.50628C21.0922 5.67038 21 5.89294 21 6.125C21 6.35706 21.0922 6.57962 21.2563 6.74372C21.4204 6.90781 21.6429 7 21.875 7C22.1071 7 22.3296 6.90781 22.4937 6.74372C22.6578 6.57962 22.75 6.35706 22.75 6.125C22.75 5.89294 22.6578 5.67038 22.4937 5.50628C22.3296 5.34219 22.1071 5.25 21.875 5.25ZM19.25 2.625C19.0179 2.625 18.7954 2.71719 18.6313 2.88128C18.4672 3.04538 18.375 3.26794 18.375 3.5C18.375 3.73206 18.4672 3.95462 18.6313 4.11872C18.7954 4.28281 19.0179 4.375 19.25 4.375C19.4821 4.375 19.7046 4.28281 19.8687 4.11872C20.0328 3.95462 20.125 3.73206 20.125 3.5C20.125 3.26794 20.0328 3.04538 19.8687 2.88128C19.7046 2.71719 19.4821 2.625 19.25 2.625ZM16.625 0C16.3929 0 16.1704 0.0921872 16.0063 0.256282C15.8422 0.420376 15.75 0.642936 15.75 0.875C15.75 1.10706 15.8422 1.32962 16.0063 1.49372C16.1704 1.65781 16.3929 1.75 16.625 1.75C16.8571 1.75 17.0796 1.65781 17.2437 1.49372C17.4078 1.32962 17.5 1.10706 17.5 0.875C17.5 0.642936 17.4078 0.420376 17.2437 0.256282C17.0796 0.0921872 16.8571 0 16.625 0ZM11.375 15.75C11.1429 15.75 10.9204 15.8422 10.7563 16.0063C10.5922 16.1704 10.5 16.3929 10.5 16.625C10.5 16.8571 10.5922 17.0796 10.7563 17.2437C10.9204 17.4078 11.1429 17.5 11.375 17.5C11.6071 17.5 11.8296 17.4078 11.9937 17.2437C12.1578 17.0796 12.25 16.8571 12.25 16.625C12.25 16.3929 12.1578 16.1704 11.9937 16.0063C11.8296 15.8422 11.6071 15.75 11.375 15.75ZM8.75 13.125C8.51794 13.125 8.29538 13.2172 8.13128 13.3813C7.96719 13.5454 7.875 13.7679 7.875 14C7.875 14.2321 7.96719 14.4546 8.13128 14.6187C8.29538 14.7828 8.51794 14.875 8.75 14.875C8.98206 14.875 9.20462 14.7828 9.36872 14.6187C9.53281 14.4546 9.625 14.2321 9.625 14C9.625 13.7679 9.53281 13.5454 9.36872 13.3813C9.20462 13.2172 8.98206 13.125 8.75 13.125ZM6.125 10.5C5.89294 10.5 5.67038 10.5922 5.50628 10.7563C5.34219 10.9204 5.25 11.1429 5.25 11.375C5.25 11.6071 5.34219 11.8296 5.50628 11.9937C5.67038 12.1578 5.89294 12.25 6.125 12.25C6.35706 12.25 6.57962 12.1578 6.74372 11.9937C6.90781 11.8296 7 11.6071 7 11.375C7 11.1429 6.90781 10.9204 6.74372 10.7563C6.57962 10.5922 6.35706 10.5 6.125 10.5ZM6.125 7.875C5.89294 7.875 5.67038 7.96719 5.50628 8.13128C5.34219 8.29538 5.25 8.51794 5.25 8.75C5.25 8.98206 5.34219 9.20462 5.50628 9.36872C5.67038 9.53281 5.89294 9.625 6.125 9.625C6.35706 9.625 6.57962 9.53281 6.74372 9.36872C6.90781 9.20462 7 8.98206 7 8.75C7 8.51794 6.90781 8.29538 6.74372 8.13128C6.57962 7.96719 6.35706 7.875 6.125 7.875ZM6.125 5.25C5.89294 5.25 5.67038 5.34219 5.50628 5.50628C5.34219 5.67038 5.25 5.89294 5.25 6.125C5.25 6.35706 5.34219 6.57962 5.50628 6.74372C5.67038 6.90781 5.89294 7 6.125 7C6.35706 7 6.57962 6.90781 6.74372 6.74372C6.90781 6.57962 7 6.35706 7 6.125C7 5.89294 6.90781 5.67038 6.74372 5.50628C6.57962 5.34219 6.35706 5.25 6.125 5.25ZM8.75 2.625C8.51794 2.625 8.29538 2.71719 8.13128 2.88128C7.96719 3.04538 7.875 3.26794 7.875 3.5C7.875 3.73206 7.96719 3.95462 8.13128 4.11872C8.29538 4.28281 8.51794 4.375 8.75 4.375C8.98206 4.375 9.20462 4.28281 9.36872 4.11872C9.53281 3.95462 9.625 3.73206 9.625 3.5C9.625 3.26794 9.53281 3.04538 9.36872 2.88128C9.20462 2.71719 8.98206 2.625 8.75 2.625ZM11.375 0C11.1429 0 10.9204 0.0921872 10.7563 0.256282C10.5922 0.420376 10.5 0.642936 10.5 0.875C10.5 1.10706 10.5922 1.32962 10.7563 1.49372C10.9204 1.65781 11.1429 1.75 11.375 1.75C11.6071 1.75 11.8296 1.65781 11.9937 1.49372C12.1578 1.32962 12.25 1.10706 12.25 0.875C12.25 0.642936 12.1578 0.420376 11.9937 0.256282C11.8296 0.0921872 11.6071 0 11.375 0ZM14 0C13.7679 0 13.5454 0.0921872 13.3813 0.256282C13.2172 0.420376 13.125 0.642936 13.125 0.875C13.125 1.10706 13.2172 1.32962 13.3813 1.49372C13.5454 1.65781 13.7679 1.75 14 1.75C14.2321 1.75 14.4546 1.65781 14.6187 1.49372C14.7828 1.32962 14.875 1.10706 14.875 0.875C14.875 0.642936 14.7828 0.420376 14.6187 0.256282C14.4546 0.0921872 14.2321 0 14 0ZM14 18.375C13.7679 18.375 13.5454 18.4672 13.3813 18.6313C13.2172 18.7954 13.125 19.0179 13.125 19.25C13.125 19.4821 13.2172 19.7046 13.3813 19.8687C13.5454 20.0328 13.7679 20.125 14 20.125C14.2321 20.125 14.4546 20.0328 14.6187 19.8687C14.7828 19.7046 14.875 19.4821 14.875 19.25C14.875 19.0179 14.7828 18.7954 14.6187 18.6313C14.4546 18.4672 14.2321 18.375 14 18.375ZM14 15.75C13.7679 15.75 13.5454 15.8422 13.3813 16.0063C13.2172 16.1704 13.125 16.3929 13.125 16.625C13.125 16.8571 13.2172 17.0796 13.3813 17.2437C13.5454 17.4078 13.7679 17.5 14 17.5C14.2321 17.5 14.4546 17.4078 14.6187 17.2437C14.7828 17.0796 14.875 16.8571 14.875 16.625C14.875 16.3929 14.7828 16.1704 14.6187 16.0063C14.4546 15.8422 14.2321 15.75 14 15.75ZM14 13.125C13.7679 13.125 13.5454 13.2172 13.3813 13.3813C13.2172 13.5454 13.125 13.7679 13.125 14C13.125 14.2321 13.2172 14.4546 13.3813 14.6187C13.5454 14.7828 13.7679 14.875 14 14.875C14.2321 14.875 14.4546 14.7828 14.6187 14.6187C14.7828 14.4546 14.875 14.2321 14.875 14C14.875 13.7679 14.7828 13.5454 14.6187 13.3813C14.4546 13.2172 14.2321 13.125 14 13.125ZM14 10.5C13.7679 10.5 13.5454 10.5922 13.3813 10.7563C13.2172 10.9204 13.125 11.1429 13.125 11.375C13.125 11.6071 13.2172 11.8296 13.3813 11.9937C13.5454 12.1578 13.7679 12.25 14 12.25C14.2321 12.25 14.4546 12.1578 14.6187 11.9937C14.7828 11.8296 14.875 11.6071 14.875 11.375C14.875 11.1429 14.7828 10.9204 14.6187 10.7563C14.4546 10.5922 14.2321 10.5 14 10.5ZM14 7.875C13.7679 7.875 13.5454 7.96719 13.3813 8.13128C13.2172 8.29538 13.125 8.51794 13.125 8.75C13.125 8.98206 13.2172 9.20462 13.3813 9.36872C13.5454 9.53281 13.7679 9.625 14 9.625C14.2321 9.625 14.4546 9.53281 14.6187 9.36872C14.7828 9.20462 14.875 8.98206 14.875 8.75C14.875 8.51794 14.7828 8.29538 14.6187 8.13128C14.4546 7.96719 14.2321 7.875 14 7.875ZM11.375 18.375C11.1429 18.375 10.9204 18.4672 10.7563 18.6313C10.5922 18.7954 10.5 19.0179 10.5 19.25C10.5 19.4821 10.5922 19.7046 10.7563 19.8687C10.9204 20.0328 11.1429 20.125 11.375 20.125C11.6071 20.125 11.8296 20.0328 11.9937 19.8687C12.1578 19.7046 12.25 19.4821 12.25 19.25C12.25 19.0179 12.1578 18.7954 11.9937 18.6313C11.8296 18.4672 11.6071 18.375 11.375 18.375ZM16.625 21C16.3929 21 16.1704 21.0922 16.0063 21.2563C15.8422 21.4204 15.75 21.6429 15.75 21.875C15.75 22.1071 15.8422 22.3296 16.0063 22.4937C16.1704 22.6578 16.3929 22.75 16.625 22.75C16.8571 22.75 17.0796 22.6578 17.2437 22.4937C17.4078 22.3296 17.5 22.1071 17.5 21.875C17.5 21.6429 17.4078 21.4204 17.2437 21.2563C17.0796 21.0922 16.8571 21 16.625 21ZM14 21C13.7679 21 13.5454 21.0922 13.3813 21.2563C13.2172 21.4204 13.125 21.6429 13.125 21.875C13.125 22.1071 13.2172 22.3296 13.3813 22.4937C13.5454 22.6578 13.7679 22.75 14 22.75C14.2321 22.75 14.4546 22.6578 14.6187 22.4937C14.7828 22.3296 14.875 22.1071 14.875 21.875C14.875 21.6429 14.7828 21.4204 14.6187 21.2563C14.4546 21.0922 14.2321 21 14 21ZM14 23.625C13.7679 23.625 13.5454 23.7172 13.3813 23.8813C13.2172 24.0454 13.125 24.2679 13.125 24.5C13.125 24.7321 13.2172 24.9546 13.3813 25.1187C13.5454 25.2828 13.7679 25.375 14 25.375C14.2321 25.375 14.4546 25.2828 14.6187 25.1187C14.7828 24.9546 14.875 24.7321 14.875 24.5C14.875 24.2679 14.7828 24.0454 14.6187 23.8813C14.4546 23.7172 14.2321 23.625 14 23.625ZM11.375 21C11.1429 21 10.9204 21.0922 10.7563 21.2563C10.5922 21.4204 10.5 21.6429 10.5 21.875C10.5 22.1071 10.5922 22.3296 10.7563 22.4937C10.9204 22.6578 11.1429 22.75 11.375 22.75C11.6071 22.75 11.8296 22.6578 11.9937 22.4937C12.1578 22.3296 12.25 22.1071 12.25 21.875C12.25 21.6429 12.1578 21.4204 11.9937 21.2563C11.8296 21.0922 11.6071 21 11.375 21Z" fill="white"/>
</svg>
